# xmcd CD database file
#
# Track frame offsets:
#	150
#	69501
#	147533
#	194697
#	216740
#	233077
#	254262
#	269195
#
# Disc length: 3742 seconds
#
# Revision: 1
# Processed by: cddbd v1.5.2PL0 Copyright (c) Steve Scherf et al.
# Submitted via: CDex 1.79
#
DISCID=8d0e9c08
DTITLE=Karim El-Gawhary - Frauenpower auf Arabisch CD3
DYEAR=2013
DGENRE=Audiobook
TTITLE0=16
TTITLE1=17
TTITLE2=18
TTITLE3=19
TTITLE4=20
TTITLE5=21
TTITLE6=22
TTITLE7=23
EXTD=YEAR: 2013
EXTT0=
EXTT1=
EXTT2=
EXTT3=
EXTT4=
EXTT5=
EXTT6=
EXTT7=
PLAYORDER=
